              <svg id="sw-js-blob-svg" viewBox="0 0 100 100" xmlns="http://www.w3.org/2000/svg" version="1.1">
                    <defs> 
                        <linearGradient id="sw-gradient" x1="0" x2="1" y1="1" y2="0">
                            <stop id="stop1" stop-color="rgba(0, 255, 35.425, 1)" offset="0%"></stop>
                            <stop id="stop2" stop-color="rgba(130, 224, 170, 1)" offset="100%"></stop>
                        </linearGradient>
                    </defs>
                    <mask id="mask1" mask-type="alpha">
                <path fill="url(#sw-gradient)" d="M21.5,-36.3C27.9,-33.6,33.1,-27.8,36.3,-21.3C39.4,-14.7,40.7,-7.4,40.8,0.1C40.9,7.5,39.9,15,36.6,21.3C33.3,27.7,27.6,32.9,21.2,35.9C14.7,38.9,7.3,39.8,0.5,38.9C-6.3,38.1,-12.7,35.5,-19.4,32.6C-26.1,29.7,-33.1,26.5,-37.4,21C-41.6,15.5,-43,7.7,-41.2,1C-39.5,-5.7,-34.6,-11.4,-30.6,-17.3C-26.5,-23.1,-23.4,-29.1,-18.4,-32.6C-13.5,-36.2,-6.7,-37.3,0.4,-38C7.6,-38.8,15.2,-39.1,21.5,-36.3Z" width="100%" height="100%" transform="translate(50 50)" stroke-width="0" style="transition: all 0.3s ease 0s;"></path>
                    </mask>
                    <g mask="url(#mask1)">
                <path fill="url(#sw-gradient)" d="M21.5,-36.3C27.9,-33.6,33.1,-27.8,36.3,-21.3C39.4,-14.7,40.7,-7.4,40.8,0.1C40.9,7.5,39.9,15,36.6,21.3C33.3,27.7,27.6,32.9,21.2,35.9C14.7,38.9,7.3,39.8,0.5,38.9C-6.3,38.1,-12.7,35.5,-19.4,32.6C-26.1,29.7,-33.1,26.5,-37.4,21C-41.6,15.5,-43,7.7,-41.2,1C-39.5,-5.7,-34.6,-11.4,-30.6,-17.3C-26.5,-23.1,-23.4,-29.1,-18.4,-32.6C-13.5,-36.2,-6.7,-37.3,0.4,-38C7.6,-38.8,15.2,-39.1,21.5,-36.3Z" width="100%" height="100%" transform="translate(50 50)" stroke-width="0" style="transition: all 0.3s ease 0s;"></path>
            <image href="./MyImage.png" height="70%" width="100%" y="20"/>
            </g>
              </svg>